<mxfile host="app.diagrams.net" agent="Mozilla/5.0 (Windows NT 10.0; Win64; x64) AppleWebKit/537.36 (KHTML, like Gecko) Chrome/126.0.0.0 Safari/537.36" version="24.7.4">
  <diagram name="Page-1" id="-9Iy94mN1ofaxpAQXRIW">
    <mxGraphModel dx="880" dy="478" grid="1" gridSize="10" guides="1" tooltips="1" connect="1" arrows="1" fold="1" page="1" pageScale="1" pageWidth="850" pageHeight="1100" math="0" shadow="0">
      <root>
        <mxCell id="0" />
        <mxCell id="1" parent="0" />
        <mxCell id="A6SjyKwUhPvSU5UJ5r70-2" value="User/Guru" style="rounded=1;whiteSpace=wrap;html=1;" vertex="1" parent="1">
          <mxGeometry x="30" y="340" width="90" height="45" as="geometry" />
        </mxCell>
        <mxCell id="A6SjyKwUhPvSU5UJ5r70-3" value="" style="endArrow=classic;html=1;rounded=0;" edge="1" parent="1" source="A6SjyKwUhPvSU5UJ5r70-2" target="A6SjyKwUhPvSU5UJ5r70-4">
          <mxGeometry width="50" height="50" relative="1" as="geometry">
            <mxPoint x="280" y="280" as="sourcePoint" />
            <mxPoint x="170" y="173" as="targetPoint" />
          </mxGeometry>
        </mxCell>
        <mxCell id="A6SjyKwUhPvSU5UJ5r70-6" value="" style="edgeStyle=orthogonalEdgeStyle;rounded=0;orthogonalLoop=1;jettySize=auto;html=1;" edge="1" parent="1" source="A6SjyKwUhPvSU5UJ5r70-4" target="A6SjyKwUhPvSU5UJ5r70-5">
          <mxGeometry relative="1" as="geometry" />
        </mxCell>
        <mxCell id="A6SjyKwUhPvSU5UJ5r70-4" value="Daftar/Login" style="rounded=1;whiteSpace=wrap;html=1;" vertex="1" parent="1">
          <mxGeometry x="167" y="332.5" width="120" height="60" as="geometry" />
        </mxCell>
        <mxCell id="A6SjyKwUhPvSU5UJ5r70-5" value="Pemilihan poin" style="rounded=1;whiteSpace=wrap;html=1;" vertex="1" parent="1">
          <mxGeometry x="335" y="332.5" width="120" height="60" as="geometry" />
        </mxCell>
        <mxCell id="A6SjyKwUhPvSU5UJ5r70-7" value="Negatif poin" style="rounded=1;whiteSpace=wrap;html=1;" vertex="1" parent="1">
          <mxGeometry x="335" y="474" width="120" height="60" as="geometry" />
        </mxCell>
        <mxCell id="A6SjyKwUhPvSU5UJ5r70-8" value="Positif poin" style="rounded=1;whiteSpace=wrap;html=1;" vertex="1" parent="1">
          <mxGeometry x="335" y="194" width="120" height="60" as="geometry" />
        </mxCell>
        <mxCell id="A6SjyKwUhPvSU5UJ5r70-9" value="" style="endArrow=classic;html=1;rounded=0;" edge="1" parent="1" source="A6SjyKwUhPvSU5UJ5r70-5" target="A6SjyKwUhPvSU5UJ5r70-7">
          <mxGeometry width="50" height="50" relative="1" as="geometry">
            <mxPoint x="280" y="280" as="sourcePoint" />
            <mxPoint x="330" y="230" as="targetPoint" />
          </mxGeometry>
        </mxCell>
        <mxCell id="A6SjyKwUhPvSU5UJ5r70-10" value="" style="endArrow=classic;html=1;rounded=0;" edge="1" parent="1" source="A6SjyKwUhPvSU5UJ5r70-5" target="A6SjyKwUhPvSU5UJ5r70-8">
          <mxGeometry width="50" height="50" relative="1" as="geometry">
            <mxPoint x="280" y="280" as="sourcePoint" />
            <mxPoint x="330" y="230" as="targetPoint" />
          </mxGeometry>
        </mxCell>
        <mxCell id="A6SjyKwUhPvSU5UJ5r70-11" value="Pencapaian" style="text;html=1;align=center;verticalAlign=middle;resizable=0;points=[];autosize=1;strokeColor=none;fillColor=none;rotation=-90;" vertex="1" parent="1">
          <mxGeometry x="339" y="281" width="90" height="30" as="geometry" />
        </mxCell>
        <mxCell id="A6SjyKwUhPvSU5UJ5r70-12" value="Pelanggaran" style="text;html=1;align=center;verticalAlign=middle;resizable=0;points=[];autosize=1;strokeColor=none;fillColor=none;rotation=-90;" vertex="1" parent="1">
          <mxGeometry x="338" y="420" width="90" height="30" as="geometry" />
        </mxCell>
        <mxCell id="A6SjyKwUhPvSU5UJ5r70-19" value="" style="edgeStyle=orthogonalEdgeStyle;rounded=0;orthogonalLoop=1;jettySize=auto;html=1;" edge="1" parent="1" source="A6SjyKwUhPvSU5UJ5r70-14" target="A6SjyKwUhPvSU5UJ5r70-18">
          <mxGeometry relative="1" as="geometry" />
        </mxCell>
        <mxCell id="A6SjyKwUhPvSU5UJ5r70-14" value="Mencari data siswa" style="rounded=1;whiteSpace=wrap;html=1;" vertex="1" parent="1">
          <mxGeometry x="498" y="332.5" width="120" height="60" as="geometry" />
        </mxCell>
        <mxCell id="A6SjyKwUhPvSU5UJ5r70-16" value="" style="endArrow=classic;html=1;rounded=0;" edge="1" parent="1" source="A6SjyKwUhPvSU5UJ5r70-8" target="A6SjyKwUhPvSU5UJ5r70-14">
          <mxGeometry width="50" height="50" relative="1" as="geometry">
            <mxPoint x="280" y="480" as="sourcePoint" />
            <mxPoint x="330" y="430" as="targetPoint" />
            <Array as="points">
              <mxPoint x="560" y="224" />
            </Array>
          </mxGeometry>
        </mxCell>
        <mxCell id="A6SjyKwUhPvSU5UJ5r70-17" value="" style="endArrow=classic;html=1;rounded=0;" edge="1" parent="1" source="A6SjyKwUhPvSU5UJ5r70-7" target="A6SjyKwUhPvSU5UJ5r70-14">
          <mxGeometry width="50" height="50" relative="1" as="geometry">
            <mxPoint x="410" y="380" as="sourcePoint" />
            <mxPoint x="460" y="330" as="targetPoint" />
            <Array as="points">
              <mxPoint x="558" y="504" />
            </Array>
          </mxGeometry>
        </mxCell>
        <mxCell id="A6SjyKwUhPvSU5UJ5r70-21" value="" style="edgeStyle=orthogonalEdgeStyle;rounded=0;orthogonalLoop=1;jettySize=auto;html=1;" edge="1" parent="1" source="A6SjyKwUhPvSU5UJ5r70-18" target="A6SjyKwUhPvSU5UJ5r70-20">
          <mxGeometry relative="1" as="geometry" />
        </mxCell>
        <mxCell id="A6SjyKwUhPvSU5UJ5r70-18" value="Mengisi poin" style="rounded=1;whiteSpace=wrap;html=1;" vertex="1" parent="1">
          <mxGeometry x="660" y="332.5" width="120" height="60" as="geometry" />
        </mxCell>
        <mxCell id="A6SjyKwUhPvSU5UJ5r70-20" value="Riwayat data poin" style="rounded=1;whiteSpace=wrap;html=1;" vertex="1" parent="1">
          <mxGeometry x="660" y="430" width="120" height="60" as="geometry" />
        </mxCell>
        <mxCell id="A6SjyKwUhPvSU5UJ5r70-23" value="" style="edgeStyle=orthogonalEdgeStyle;rounded=0;orthogonalLoop=1;jettySize=auto;html=1;" edge="1" parent="1" source="A6SjyKwUhPvSU5UJ5r70-22" target="A6SjyKwUhPvSU5UJ5r70-2">
          <mxGeometry relative="1" as="geometry" />
        </mxCell>
        <mxCell id="A6SjyKwUhPvSU5UJ5r70-22" value="Murid mendapatkan poin" style="rounded=1;whiteSpace=wrap;html=1;" vertex="1" parent="1">
          <mxGeometry x="15" y="233" width="120" height="60" as="geometry" />
        </mxCell>
      </root>
    </mxGraphModel>
  </diagram>
</mxfile>
